<?xml version="1.0" encoding="UTF-8"?>
<svg id="Object" xmlns="http://www.w3.org/2000/svg" version="1.1" viewBox="0 0 400 400">
  <!-- Generator: Adobe Illustrator 29.5.0, SVG Export Plug-In . SVG Version: 2.1.0 Build 137)  -->
  <defs>
    <style>
      .st0 {
        fill: #fff;
      }
    </style>
  </defs>
  <rect width="400" height="400"/>
  <g>
    <g>
      <path class="st0" d="M162.15,306.84c-6.27,0-12.36-1.18-18.1-3.52-5.88-2.38-11.38-6.03-15.92-10.56L19.07,183.7c-4.58-4.56-8.14-9.92-10.58-15.92-2.34-5.77-3.52-11.86-3.52-18.1s1.19-12.33,3.52-18.1c2.4-5.93,6.06-11.44,10.58-15.94l47.43-47.42c4.58-4.6,9.93-8.15,15.93-10.58,5.77-2.34,11.86-3.52,18.1-3.52s12.33,1.19,18.1,3.52c5.89,2.4,11.39,6.06,15.92,10.58l51.33,51.32-23.54,23.54-51.33-51.32c-1.42-1.42-3.06-2.51-4.89-3.26-1.74-.71-3.68-1.09-5.59-1.09s-3.8.36-5.59,1.08c-1.86.75-3.47,1.82-4.9,3.27l-47.26,47.26c-.06.05-.12.1-.18.16-1.42,1.43-2.52,3.07-3.26,4.89-.7,1.72-1.08,3.66-1.08,5.59s.36,3.81,1.08,5.58c.75,1.84,1.84,3.48,3.26,4.9l109.07,109.07c1.47,1.44,3.11,2.54,4.89,3.26,1.8.72,3.67,1.08,5.58,1.08s3.79-.36,5.58-1.07c1.85-.76,3.5-1.86,4.91-3.26l13.71-13.72,33.71-33.71c1.44-1.44,2.51-3.04,3.26-4.89.71-1.76,1.08-3.64,1.08-5.59s-.36-3.83-1.08-5.58c-.75-1.84-1.81-3.44-3.26-4.89l-28.54-28.54,23.54-23.54,28.54,28.55c4.59,4.58,8.15,9.94,10.57,15.92,2.35,5.76,3.53,11.85,3.53,18.1s-1.19,12.32-3.52,18.1c-2.39,5.9-6.05,11.41-10.58,15.92l-47.42,47.42c-4.54,4.54-10.04,8.19-15.92,10.56-5.75,2.34-11.84,3.52-18.1,3.52Z"/>
      <path d="M100.53,56.11c5.99,0,11.82,1.14,17.34,3.37,5.65,2.3,10.92,5.81,15.26,10.14l49.91,49.9-20.71,20.71-49.91-49.9c-1.61-1.61-3.47-2.85-5.55-3.7-2.01-.82-4.14-1.24-6.34-1.24s-4.31.41-6.33,1.23c-2.09.84-3.97,2.09-5.56,3.7l-44.13,44.13-3.06,3.06c-.09.07-.17.15-.25.23-1.61,1.61-2.86,3.48-3.7,5.55-.8,1.97-1.23,4.16-1.23,6.35s.41,4.31,1.23,6.34c.85,2.08,2.09,3.94,3.7,5.55l109.09,109.09c1.64,1.62,3.5,2.85,5.55,3.69,2.02.81,4.14,1.21,6.31,1.21s4.3-.41,6.36-1.23c2.07-.85,3.93-2.09,5.55-3.69l13.7-13.71,26.37-26.37,7.34-7.34c1.61-1.61,2.86-3.48,3.7-5.56.81-2,1.22-4.14,1.22-6.34s-.41-4.35-1.22-6.33c-.84-2.07-2.08-3.94-3.7-5.56l-27.12-27.12,20.71-20.71,27.12,27.13c4.4,4.39,7.81,9.52,10.13,15.26,2.25,5.51,3.38,11.35,3.38,17.34s-1.14,11.81-3.38,17.35c-2.29,5.65-5.8,10.93-10.14,15.27l-7.34,7.34-26.37,26.37-13.71,13.71c-4.35,4.35-9.62,7.85-15.27,10.12-5.51,2.24-11.34,3.38-17.34,3.38s-11.84-1.14-17.35-3.38c-5.63-2.27-10.9-5.77-15.25-10.12L20.48,182.28c-4.39-4.37-7.8-9.5-10.14-15.25-2.24-5.53-3.38-11.37-3.38-17.35s1.14-11.81,3.38-17.35c2.3-5.68,5.81-10.97,10.14-15.28l47.44-47.43c4.38-4.4,9.51-7.81,15.26-10.14,5.53-2.24,11.37-3.38,17.35-3.38M100.53,52.11c-6.39,0-12.8,1.22-18.85,3.67-6.05,2.45-11.74,6.15-16.59,11.02l-47.43,47.42c-4.87,4.85-8.57,10.56-11.02,16.61-2.45,6.05-3.67,12.45-3.67,18.85s1.22,12.8,3.67,18.85c2.46,6.05,6.15,11.73,11.02,16.58l109.06,109.06c4.85,4.85,10.54,8.56,16.58,11,6.04,2.46,12.45,3.67,18.85,3.67s12.8-1.21,18.85-3.67c6.05-2.44,11.74-6.15,16.59-11l13.71-13.71,26.37-26.37,7.34-7.34c4.86-4.85,8.57-10.55,11.02-16.59,2.45-6.06,3.67-12.47,3.67-18.85s-1.22-12.81-3.68-18.85c-2.45-6.05-6.15-11.73-11.01-16.58l-29.95-29.96-26.37,26.37,29.95,29.95c1.29,1.29,2.2,2.7,2.82,4.23.62,1.52.93,3.17.93,4.83s-.31,3.31-.93,4.84c-.62,1.53-1.53,2.94-2.82,4.23l-7.34,7.34-26.37,26.37-13.7,13.71c-1.29,1.28-2.71,2.19-4.24,2.82-1.53.61-3.18.93-4.84.93s-3.3-.32-4.83-.93c-1.53-.62-2.94-1.55-4.23-2.82l-109.07-109.07c-1.29-1.29-2.2-2.71-2.82-4.23-.62-1.54-.93-3.18-.93-4.83s.31-3.32.93-4.84c.62-1.53,1.54-2.95,2.82-4.23h0s3.3-3.29,3.3-3.29l44.13-44.13c1.28-1.29,2.69-2.2,4.23-2.82,1.54-.62,3.18-.94,4.84-.94s3.31.32,4.83.94c1.52.62,2.94,1.53,4.23,2.82l52.74,52.73,26.37-26.37-52.74-52.73c-4.85-4.85-10.54-8.56-16.58-11.02-6.04-2.45-12.46-3.67-18.85-3.67h0Z"/>
    </g>
    <g>
      <path class="st0" d="M299.49,345.87c-6.27,0-12.36-1.19-18.11-3.52-5.89-2.38-11.39-6.03-15.92-10.56l-51.33-51.33,23.54-23.54,51.32,51.32c1.46,1.45,3.06,2.51,4.9,3.26,1.74.71,3.64,1.08,5.51,1.08h.15c1.88,0,3.79-.37,5.52-1.08,1.84-.75,3.44-1.81,4.89-3.25l47.3-47.3s.09-.08.13-.12c1.42-1.42,2.51-3.06,3.26-4.89.71-1.76,1.09-3.69,1.09-5.6s-.37-3.79-1.09-5.57c-.74-1.83-1.83-3.47-3.24-4.9l-109.08-109.07c-1.42-1.43-3.07-2.54-4.9-3.27-1.78-.71-3.65-1.07-5.57-1.07s-3.83.37-5.58,1.07c-1.86.75-3.46,1.82-4.92,3.27l-40.07,40.07-4.05,4.04-3.3,3.31c-1.45,1.46-2.51,3.06-3.25,4.9-.71,1.74-1.08,3.67-1.08,5.59s.38,3.83,1.09,5.57c.75,1.85,1.81,3.45,3.24,4.89l28.54,28.54-23.54,23.54-28.54-28.54c-4.6-4.59-8.15-9.95-10.56-15.92-2.34-5.74-3.52-11.83-3.52-18.09s1.19-12.35,3.52-18.1c2.43-6.01,5.99-11.37,10.58-15.94.04-.04.08-.08.12-.13l47.29-47.29c4.62-4.6,9.98-8.16,15.95-10.57,5.75-2.33,11.84-3.51,18.1-3.51s12.35,1.19,18.1,3.52c5.96,2.4,11.31,5.96,15.92,10.56l109.06,109.06c4.59,4.59,8.14,9.95,10.56,15.93,2.35,5.75,3.53,11.83,3.53,18.09s-1.19,12.33-3.53,18.1c-2.39,5.92-6.04,11.44-10.56,15.95l-47.42,47.42c-4.61,4.59-9.98,8.15-15.95,10.56-5.77,2.34-11.86,3.52-18.1,3.52Z"/>
      <path d="M237.88,95.16c6,0,11.83,1.14,17.35,3.38,5.7,2.3,10.83,5.7,15.25,10.12l109.06,109.06c4.4,4.4,7.8,9.53,10.13,15.27,2.24,5.5,3.38,11.33,3.38,17.33s-1.14,11.82-3.39,17.35c-2.29,5.67-5.79,10.95-10.12,15.28l-47.41,47.41c-4.43,4.41-9.57,7.81-15.29,10.13-5.53,2.24-11.37,3.38-17.35,3.38s-11.84-1.14-17.36-3.38c-5.64-2.28-10.91-5.78-15.25-10.12l-49.91-49.91,20.71-20.71,49.91,49.91c1.62,1.61,3.49,2.85,5.56,3.69,2,.81,4.11,1.22,6.26,1.22h.08s.08,0,.08,0c2.14,0,4.31-.42,6.27-1.22,2.06-.84,3.93-2.08,5.57-3.7l47.25-47.25c.06-.05.12-.11.17-.16,1.61-1.61,2.85-3.47,3.7-5.56.81-1.99,1.23-4.19,1.23-6.35s-.41-4.3-1.23-6.32c-.84-2.07-2.08-3.94-3.69-5.57l-109.06-109.05c-1.62-1.63-3.5-2.89-5.58-3.72-2.01-.81-4.14-1.22-6.31-1.22s-4.34.42-6.33,1.22c-2.11.85-3.94,2.06-5.58,3.71l-13.7,13.7-26.37,26.37-4.06,4.05-3.31,3.32c-1.64,1.65-2.84,3.47-3.67,5.54-.81,1.98-1.24,4.18-1.24,6.35s.43,4.35,1.23,6.32c.85,2.1,2.06,3.92,3.69,5.57l27.12,27.12-20.71,20.71-27.12-27.13c-4.4-4.4-7.81-9.54-10.12-15.26-2.24-5.5-3.37-11.33-3.37-17.33s1.14-11.84,3.38-17.35c2.33-5.75,5.74-10.89,10.14-15.27.06-.06.11-.12.17-.18l7.17-7.17,26.37-26.37,13.7-13.7c4.43-4.41,9.57-7.82,15.29-10.14,5.51-2.23,11.34-3.37,17.35-3.37M237.88,91.16c-6.39,0-12.81,1.21-18.85,3.66-6.05,2.45-11.74,6.16-16.61,11.01l-13.71,13.71-26.37,26.37-7.34,7.34h0c-4.87,4.85-8.57,10.55-11.02,16.6-2.46,6.05-3.67,12.45-3.67,18.85s1.21,12.8,3.67,18.84c2.45,6.06,6.15,11.73,11,16.58l29.95,29.96,26.37-26.37-29.95-29.95c-1.29-1.3-2.19-2.71-2.81-4.24-.62-1.52-.94-3.17-.94-4.82s.32-3.32.94-4.84c.62-1.54,1.53-2.94,2.81-4.23l3.3-3.31,4.05-4.04,26.37-26.37,13.7-13.7c1.3-1.3,2.71-2.21,4.25-2.83,1.52-.61,3.18-.93,4.84-.93s3.3.32,4.82.93c1.54.62,2.95,1.54,4.23,2.83l109.07,109.06c1.28,1.29,2.19,2.71,2.81,4.24s.94,3.17.94,4.82-.32,3.32-.94,4.85c-.62,1.52-1.53,2.94-2.82,4.23h-.01s-47.41,47.41-47.41,47.41c-1.3,1.29-2.71,2.2-4.24,2.82-1.5.61-3.13.93-4.76.93-.03,0-.05,0-.08,0-.03,0-.05,0-.08,0-1.62,0-3.25-.32-4.75-.93-1.53-.62-2.94-1.53-4.24-2.82l-52.73-52.73-26.37,26.37,52.74,52.74c4.85,4.85,10.55,8.56,16.58,11,6.05,2.46,12.45,3.67,18.86,3.67s12.8-1.22,18.85-3.67c6.06-2.45,11.74-6.15,16.61-11l47.42-47.42c4.86-4.85,8.56-10.56,11-16.61,2.46-6.05,3.68-12.45,3.68-18.85s-1.21-12.79-3.68-18.84c-2.45-6.06-6.15-11.74-11-16.59l-109.06-109.06c-4.85-4.85-10.53-8.56-16.58-11-6.05-2.46-12.46-3.67-18.85-3.67h0Z"/>
    </g>
  </g>
</svg>