<?xml version="1.0" encoding="UTF-8"?>
<svg id="Layer_1" xmlns="http://www.w3.org/2000/svg" viewBox="0 0 100 100">
  <defs>
    <style>
      .cls-1 {
        fill: none;
      }

      .cls-1, .cls-2 {
        stroke: #fff;
        stroke-linecap: round;
        stroke-linejoin: round;
        stroke-width: 2px;
      }
    </style>
  </defs>
  <circle class="cls-1" cx="58.27" cy="45.18" r="6.47"/>
  <line class="cls-1" x1="80.63" y1="42.61" x2="94.57" y2="42.61"/>
  <line class="cls-1" x1="58.27" y1="92.12" x2="58.27" y2="68.21"/>
  <line class="cls-1" x1="5.43" y1="43.51" x2="29.34" y2="43.51"/>
  <path class="cls-1" d="M73.17,30.04c8.23,8.23,8.23,21.58,0,29.81s-21.58,8.23-29.81,0-8.23-21.58,0-29.81"/>
  <path class="cls-1" d="M48.49,54.52c-5.4-5.4-5.4-14.16,0-19.56s14.16-5.4,19.56,0,5.4,14.16,0,19.56"/>
  <circle class="cls-2" cx="58.27" cy="21.97" r="1.27"/>
  <path class="cls-1" d="M94.57,44.18c0,20.05-16.25,36.3-36.3,36.3s-36.3-16.25-36.3-36.3S38.22,7.88,58.27,7.88"/>
</svg>