<?xml version="1.0" encoding="UTF-8"?>
<svg id="fill" xmlns="http://www.w3.org/2000/svg" viewBox="0 0 100 100">
    <defs>
        <style>
            .cls-1{stroke-miterlimit:10;}.cls-1,.cls-2{fill:none;stroke:#b6b6b6;stroke-width:2;stroke-linecap:round;}.cls-2{stroke-linejoin:round;}</style>
    </defs>
    <line class="cls-1" x1="19.25193" y1="45.68162" x2="8.76766" y2="45.68162" />
    <line class="cls-1" x1="21.37086" y1="34.47951" x2="16.1867" y2="32.45081" />
    <line class="cls-1" x1="28.25739" y1="23.96609" x2="20.84392" y2="16.56162" />
    <line class="cls-1" x1="38.78324" y1="17.08792" x2="36.72125" y2="11.83081" />
    <line class="cls-1" x1="50" y1="14.97106" x2="50" y2="4.5" />
    <line class="cls-1" x1="80.74807" y1="45.68162" x2="91.23234" y2="45.68162" />
    <line class="cls-1" x1="78.62914" y1="34.47951" x2="83.8133" y2="32.45081" />
    <line class="cls-1" x1="71.74261" y1="23.96609" x2="79.15608" y2="16.56162" />
    <line class="cls-1" x1="61.21676" y1="17.08792" x2="63.27875" y2="11.83081" />
    <polyline class="cls-2"
        points="45.4733 60.61043 33.26448 48.40178 39.29725 54.43438 39.29725 54.43438 45.4733 60.61043 69.22494 36.8588" />
    <path class="cls-1"
        d="M50.00183,88.25h-7.25c0,4,3.23999,7.25,7.23999,7.25h.02002c4,0,7.23999-3.25,7.23999-7.25h-7.25s7.25001-.00001,7.25001-.00001h.92c1.81,0,3.29-1.47,3.29-3.29v-7.34s-11.46,0-11.46,0h11.46s.1,0,.1,0c.03-.18.07-.37.1-.55.52-2.66,2.02-5.05,4.28-6.63l.03329-.05825c7.15535-5.03109,11.83118-13.35058,11.83118-22.76217,0-15.35699-12.4493-27.8063-27.8063-27.8063s-27.8063,12.4493-27.8063,27.8063c0,9.4343,4.69842,17.77122,11.88302,22.79853l-.0149.02189c2.26,1.58,3.76,3.97,4.28,6.63.03.18.07.37.1.55h11.56-11.46v7.34c0,1.82,1.48,3.29,3.29,3.29h.92" />
</svg>