<?xml version="1.0" encoding="UTF-8"?>
<svg id="fill" xmlns="http://www.w3.org/2000/svg" viewBox="0 0 100 100">
    <defs>
        <style>
            .cls-1{stroke-miterlimit:10;}.cls-1,.cls-2{fill:none;stroke:#ffffff;stroke-width:2;}.cls-2{stroke-linecap:round;stroke-linejoin:round;}</style>
    </defs>
    <path class="cls-1"
        d="M84.23256,66.50102c0,3.44214-2.81871,6.23258-6.29592,6.23258s-6.29605-2.79044-6.29605-6.23258,2.81883-6.23258,6.29605-6.23258,6.29592,2.79031,6.29592,6.23258Z" />
    <path class="cls-1"
        d="M89.90706,85.36521v-.66033c0-6.61155-5.35972-11.97128-11.97128-11.97128h-.00002c-6.61155,0-11.97128,5.35972-11.97128,11.97128v.6608s4.36017,4.71236,12.47385,4.71236c6.65978,0,11.46872-4.71283,11.46872-4.71283Z" />
    <circle class="cls-2" cx="77.93577" cy="72.5138" r="17.56423" />
    <path class="cls-2"
        d="M33.3895,10.82819c5.46298-2.61221,11.55732-4.11497,17.9911-4.21668.22744-.01625.47097-.01625.71465-.01625.22744,0,.43863,0,.66606.01625,11.59842.16245,22.07593,4.87331,29.75952,12.42679" />
    <path class="cls-2"
        d="M71.46876,88.85643c-5.64247,2.81663-11.98678,4.43793-18.70744,4.53206-.22744.01625-.43863.01625-.66606.01625-.24368,0-.48722,0-.71465-.01625-23.63549-.37365-42.69009-19.65568-42.69009-43.38849,0-4.16061.58561-8.18441,1.67885-11.99353" />
    <line class="cls-2" x1="52.09946" y1="6.59868" x2="52.09946" y2="93.40132" />
    <path class="cls-2"
        d="M38.30278,16.50068c3.57303-5.90538,8.11294-9.56465,13.07783-9.88917.22744-.01625.47097-.01625.71465-.01625.22744,0,.43863,0,.66606.01625,6.79009.40614,12.80042,7.06628,16.63418,17.18638" />
    <path class="cls-2"
        d="M65.19802,84.60331c-3.47572,5.27589-7.77222,8.50618-12.4367,8.78518-.22744.01625-.43863.01625-.66606.01625-.24368,0-.48722,0-.71465-.01625-7.45617-.48736-13.95386-8.49588-17.65766-20.33783-2.11174-6.67639-3.32998-14.58743-3.32998-23.05066,0-3.25436.18013-6.42707.52193-9.47934" />
    <polyline class="cls-2" points="95.5 50 52.09525 50 30.39297 50 8.69051 50" />
    <path class="cls-2"
        d="M63.5962,28.65495c-3.63865.68231-7.50474,1.03971-11.50095,1.03971-4.20711,0-8.25216-.39542-12.03692-1.1289" />
    <path class="cls-2"
        d="M20.67883,79.8895c3.42763-2.82654,7.87855-5.16573,13.04411-6.83884,5.45814-1.75451,11.71215-2.74532,18.37231-2.74532,2.86407,0,5.6613.18358,8.35588.53872" />
    <line class="cls-2" x1="37.90175" y1="17.29916" x2="38.30278" y2="16.50068" />
    <path class="cls-2"
        d="M93.23191,63.88178c1.47076-4.35852,2.26809-9.02703,2.26809-13.88178,0-23.73297-19.0546-43.01484-42.69009-43.38849-.22744-.01625-.47097-.01625-.71465-.01625-.22744,0-.43863,0-.66606.01625-6.46183.09051-12.57574,1.59281-18.05241,4.21194" />
    <line class="cls-2" x1="52.09104" y1="6.59868" x2="52.09104" y2="93.40132" />
    <path class="cls-2"
        d="M73.62492,55.48555c.11394-1.79711.17262-3.62803.17262-5.48555,0-8.46323-1.21823-16.37427-3.32998-23.05066-3.7038-11.84211-10.20149-19.85047-17.65766-20.33783" />
    <path class="cls-2"
        d="M40.59431,28.65495c3.63865.68231,7.50474,1.03971,11.50095,1.03971,6.66016,0,12.91417-.99097,18.37231-2.74532,5.16556-1.67312,9.61649-4.0123,13.04411-6.83884" />
    <path class="cls-1"
        d="M28.36103,18.8898c0,3.44214-2.81871,6.23258-6.29592,6.23258s-6.29605-2.79044-6.29605-6.23258,2.81883-6.23258,6.29605-6.23258,6.29592,2.79031,6.29592,6.23258Z" />
    <path class="cls-1"
        d="M34.03552,37.75399v-.66033c0-6.61155-5.35972-11.97128-11.97128-11.97128h-.00002c-6.61155,0-11.97128,5.35972-11.97128,11.97128v.6608s4.36017,4.71236,12.47385,4.71236c6.65978,0,11.46872-4.71283,11.46872-4.71283Z" />
    <circle class="cls-2" cx="22.06423" cy="24.90258" r="17.56423" />
</svg>