<?xml version="1.0" encoding="UTF-8"?>
<svg id="Layer_2" xmlns="http://www.w3.org/2000/svg" viewBox="0 0 120 120">
  <defs>
    <style>
      .cls-1 {
        fill: #7e7c7c;
      }
    </style>
  </defs>
  <path class="cls-1" d="M85.52,26.61l1.73,1.73c7.28,7.28,11.29,16.96,11.29,27.25,0,21.25-17.29,38.54-38.54,38.54s-38.54-17.29-38.54-38.54c0-10.11,3.89-19.67,10.94-26.9l1.71-1.75,3.51,3.42-1.71,1.75c-6.16,6.32-9.55,14.66-9.55,23.48,0,18.55,15.09,33.64,33.64,33.64s33.64-15.09,33.64-33.64c0-8.99-3.5-17.43-9.85-23.79l-1.73-1.73,3.46-3.46M85.52,24.06l-6.01,6.01,3,3.01c6.01,6.01,9.33,14.01,9.33,22.52,0,17.56-14.28,31.84-31.84,31.84s-31.84-14.28-31.84-31.84c0-8.35,3.21-16.25,9.04-22.23l2.97-3.04-6.09-5.93-2.97,3.04c-7.39,7.58-11.46,17.58-11.46,28.16,0,22.24,18.1,40.34,40.34,40.34s40.34-18.1,40.34-40.34c0-10.78-4.2-20.91-11.82-28.53l-3.01-3h0Z"/>
  <path class="cls-1" d="M60,31.02c13.55,0,24.57,11.02,24.57,24.57,0,6.56-2.56,12.73-7.2,17.38l-1.73,1.73-3.46-3.46,1.73-1.73c3.72-3.72,5.76-8.66,5.76-13.91,0-10.85-8.83-19.67-19.67-19.67s-19.67,8.83-19.67,19.67c0,5.33,2.09,10.31,5.9,14.04l1.75,1.72-3.43,3.5-1.75-1.72c-4.75-4.66-7.37-10.89-7.37-17.54,0-13.55,11.02-24.57,24.57-24.57M60,29.22c-14.54,0-26.37,11.83-26.37,26.37,0,7.14,2.81,13.83,7.9,18.83l3.03,2.98,5.95-6.07-3.03-2.98c-3.45-3.39-5.36-7.92-5.36-12.76,0-9.86,8.02-17.87,17.87-17.87s17.87,8.02,17.87,17.87c0,4.77-1.86,9.26-5.24,12.64l-3,3,6.01,6.01,3.01-3.01c4.98-4.98,7.72-11.6,7.72-18.65,0-14.54-11.83-26.37-26.37-26.37h0Z"/>
  <path class="cls-1" d="M60,44.03c6.37,0,11.56,5.19,11.56,11.56s-5.19,11.56-11.56,11.56-11.56-5.19-11.56-11.56,5.19-11.56,11.56-11.56M60,62.25c3.67,0,6.66-2.99,6.66-6.66s-2.99-6.66-6.66-6.66-6.66,2.99-6.66,6.66,2.99,6.66,6.66,6.66M60,42.23c-7.37,0-13.36,5.99-13.36,13.36s5.99,13.36,13.36,13.36,13.36-5.99,13.36-13.36-5.99-13.36-13.36-13.36h0ZM60,60.45c-2.68,0-4.86-2.18-4.86-4.86s2.18-4.86,4.86-4.86,4.86,2.18,4.86,4.86-2.18,4.86-4.86,4.86h0Z"/>
</svg>