<?xml version="1.0" encoding="UTF-8"?>
<svg xmlns="http://www.w3.org/2000/svg" version="1.1" viewBox="0 0 200 200">
  <!-- Generator: Adobe Illustrator 29.4.0, SVG Export Plug-In . SVG Version: 2.1.0 Build 152)  -->
  <defs>
    <style>
      .st0 {
        fill: #d7d7d7;
        stroke: #b6b6b6;
        stroke-width: 2;
      }

      .st1 {
        display: none;
      }
    </style>
  </defs>
  <g id="Layer_1" class="st1">
    <g>
      <path class="st0" d="M125.52,63.87l3.18,3.18c7.67,7.67,11.89,17.86,11.89,28.7,0,22.38-18.21,40.59-40.59,40.59s-40.59-18.21-40.59-40.59c0-10.65,4.09-20.71,11.53-28.33l3.14-3.22,6.44,6.28-3.14,3.22c-5.78,5.93-8.97,13.76-8.97,22.05,0,17.42,14.17,31.59,31.59,31.59s31.59-14.17,31.59-31.59c0-8.44-3.29-16.37-9.25-22.34l-3.18-3.18,6.36-6.36M125.52,63.16l-7.07,7.07,3.54,3.54c5.87,5.87,9.11,13.68,9.11,21.99,0,17.14-13.95,31.09-31.09,31.09s-31.09-13.95-31.09-31.09c0-8.16,3.14-15.86,8.83-21.7l3.49-3.58-7.16-6.98-3.49,3.58c-7.52,7.72-11.67,17.9-11.67,28.68,0,22.66,18.43,41.09,41.09,41.09s41.09-18.43,41.09-41.09c0-10.98-4.27-21.29-12.04-29.06l-3.54-3.54h0Z"/>
      <path class="st0" d="M100,69.13c14.68,0,26.62,11.94,26.62,26.62,0,7.11-2.77,13.8-7.8,18.83l-3.18,3.18-6.36-6.37,3.18-3.18c3.33-3.33,5.16-7.75,5.16-12.46,0-9.72-7.91-17.62-17.62-17.62s-17.62,7.91-17.62,17.62c0,4.77,1.88,9.24,5.28,12.58l3.21,3.15-6.3,6.42-3.21-3.15c-5.15-5.05-7.98-11.8-7.98-19.01,0-14.68,11.94-26.62,26.62-26.62M100,68.63c-14.96,0-27.12,12.17-27.12,27.12,0,7.34,2.89,14.22,8.13,19.36l3.57,3.5,7-7.14-3.57-3.5c-3.31-3.25-5.13-7.59-5.13-12.23,0-9.44,7.68-17.12,17.12-17.12s17.12,7.68,17.12,17.12c0,4.57-1.78,8.87-5.02,12.11l-3.54,3.54,7.07,7.07,3.54-3.54c5.12-5.12,7.94-11.93,7.94-19.18,0-14.96-12.17-27.12-27.12-27.12h0Z"/>
      <path class="st0" d="M100,82.14c7.5,0,13.61,6.11,13.61,13.61s-6.11,13.61-13.61,13.61-13.61-6.11-13.61-13.61,6.11-13.61,13.61-13.61M100,100.36c2.54,0,4.61-2.07,4.61-4.61s-2.07-4.61-4.61-4.61-4.61,2.07-4.61,4.61,2.07,4.61,4.61,4.61M100,81.64c-7.78,0-14.11,6.33-14.11,14.11s6.33,14.11,14.11,14.11,14.11-6.33,14.11-14.11-6.33-14.11-14.11-14.11h0ZM100,99.86c-2.27,0-4.11-1.84-4.11-4.11s1.84-4.11,4.11-4.11,4.11,1.84,4.11,4.11-1.84,4.11-4.11,4.11h0Z"/>
    </g>
  </g>
  <g id="Layer_2">
    <g>
      <path class="st0" d="M145.68,94.94c2.79,0,5.06,2.27,5.06,5.06s-2.27,5.06-5.06,5.06-5.06-2.27-5.06-5.06,2.27-5.06,5.06-5.06M145.68,94.44c-3.07,0-5.56,2.49-5.56,5.56s2.49,5.56,5.56,5.56,5.56-2.49,5.56-5.56-2.49-5.56-5.56-5.56h0Z"/>
      <path class="st0" d="M54.32,94.94c2.79,0,5.06,2.27,5.06,5.06s-2.27,5.06-5.06,5.06-5.06-2.27-5.06-5.06,2.27-5.06,5.06-5.06M54.32,94.44c-3.07,0-5.56,2.49-5.56,5.56s2.49,5.56,5.56,5.56,5.56-2.49,5.56-5.56-2.49-5.56-5.56-5.56h0Z"/>
      <path class="st0" d="M100,63.52c20.12,0,36.48,16.37,36.48,36.48s-16.37,36.48-36.48,36.48-36.48-16.37-36.48-36.48,16.37-36.48,36.48-36.48M105,127.01s.06,0,.09,0c12.97-2.44,22.39-13.8,22.39-27s-9.42-24.56-22.39-27c-.03,0-.06,0-.09,0-.12,0-.23.04-.32.12-.11.09-.18.24-.18.38v53.02c0,.15.07.29.18.38.09.08.2.12.32.12M95,127.01c.12,0,.23-.04.32-.12.11-.09.18-.24.18-.38v-53.02c0-.15-.07-.29-.18-.38-.09-.08-.2-.12-.32-.12-.03,0-.06,0-.09,0-12.97,2.44-22.39,13.8-22.39,27s9.42,24.56,22.39,27c.03,0,.06,0,.09,0M100,63.02c-20.39,0-36.98,16.59-36.98,36.98s16.59,36.98,36.98,36.98,36.98-16.59,36.98-36.98-16.59-36.98-36.98-36.98h0ZM105,126.51v-53.02c12.5,2.35,21.98,13.34,21.98,26.51s-9.49,24.16-21.98,26.51h0ZM95,126.51c-12.5-2.35-21.98-13.34-21.98-26.51s9.49-24.16,21.98-26.51v53.02h0Z"/>
    </g>
  </g>
</svg>