<?xml version="1.0" encoding="UTF-8"?>
<svg id="Layer_1" xmlns="http://www.w3.org/2000/svg" version="1.1" viewBox="0 0 200 200">
  <!-- Generator: Adobe Illustrator 29.4.0, SVG Export Plug-In . SVG Version: 2.1.0 Build 152)  -->
  <defs>
    <style>
      .st0 {
        fill: #d7d7d7;
      }

      .st1 {
        stroke: #7e7c7c;
        stroke-width: 2;
      }

      .st2 {
        display: none;
      }
    </style>
  </defs>
  <g id="Layer_11" class="st2">
    <g>
      <path class="st0" d="M125.52,63.87l3.18,3.18c7.67,7.67,11.89,17.86,11.89,28.7,0,22.38-18.21,40.59-40.59,40.59s-40.59-18.21-40.59-40.59c0-10.65,4.09-20.71,11.53-28.33l3.14-3.22,6.44,6.28-3.14,3.22c-5.78,5.93-8.97,13.76-8.97,22.05,0,17.42,14.17,31.59,31.59,31.59s31.59-14.17,31.59-31.59c0-8.44-3.29-16.37-9.25-22.34l-3.18-3.18,6.36-6.36M125.52,63.16l-7.07,7.07,3.54,3.54c5.87,5.87,9.11,13.68,9.11,21.99,0,17.14-13.95,31.09-31.09,31.09s-31.09-13.95-31.09-31.09c0-8.16,3.14-15.86,8.83-21.7l3.49-3.58-7.16-6.98-3.49,3.58c-7.52,7.72-11.67,17.9-11.67,28.68,0,22.66,18.43,41.09,41.09,41.09s41.09-18.43,41.09-41.09c0-10.98-4.27-21.29-12.04-29.06l-3.54-3.54h0Z"/>
      <path class="st0" d="M100,69.13c14.68,0,26.62,11.94,26.62,26.62,0,7.11-2.77,13.8-7.8,18.83l-3.18,3.18-6.36-6.37,3.18-3.18c3.33-3.33,5.16-7.75,5.16-12.46,0-9.72-7.91-17.62-17.62-17.62s-17.62,7.91-17.62,17.62c0,4.77,1.88,9.24,5.28,12.58l3.21,3.15-6.3,6.42-3.21-3.15c-5.15-5.05-7.98-11.8-7.98-19.01,0-14.68,11.94-26.62,26.62-26.62M100,68.63c-14.96,0-27.12,12.17-27.12,27.12,0,7.34,2.89,14.22,8.13,19.36l3.57,3.5,7-7.14-3.57-3.5c-3.31-3.25-5.13-7.59-5.13-12.23,0-9.44,7.68-17.12,17.12-17.12s17.12,7.68,17.12,17.12c0,4.57-1.78,8.87-5.02,12.11l-3.54,3.54,7.07,7.07,3.54-3.54c5.12-5.12,7.94-11.93,7.94-19.18,0-14.96-12.17-27.12-27.12-27.12h0Z"/>
      <path class="st0" d="M100,82.14c7.5,0,13.61,6.11,13.61,13.61s-6.11,13.61-13.61,13.61-13.61-6.11-13.61-13.61,6.11-13.61,13.61-13.61M100,100.36c2.54,0,4.61-2.07,4.61-4.61s-2.07-4.61-4.61-4.61-4.61,2.07-4.61,4.61,2.07,4.61,4.61,4.61M100,81.64c-7.78,0-14.11,6.33-14.11,14.11s6.33,14.11,14.11,14.11,14.11-6.33,14.11-14.11-6.33-14.11-14.11-14.11h0ZM100,99.86c-2.27,0-4.11-1.84-4.11-4.11s1.84-4.11,4.11-4.11,4.11,1.84,4.11,4.11-1.84,4.11-4.11,4.11h0Z"/>
    </g>
  </g>
  <g id="Layer_2">
    <g>
      <path class="st1" d="M182.22,90.89c5.02,0,9.11,4.09,9.11,9.11s-4.09,9.11-9.11,9.11-9.11-4.09-9.11-9.11,4.09-9.11,9.11-9.11M182.22,89.99c-5.53,0-10.01,4.48-10.01,10.01s4.48,10.01,10.01,10.01,10.01-4.48,10.01-10.01-4.48-10.01-10.01-10.01h0Z"/>
      <path class="st1" d="M17.78,90.89c5.02,0,9.11,4.09,9.11,9.11s-4.09,9.11-9.11,9.11-9.11-4.09-9.11-9.11,4.09-9.11,9.11-9.11M17.78,89.99c-5.53,0-10.01,4.48-10.01,10.01s4.48,10.01,10.01,10.01,10.01-4.48,10.01-10.01-4.48-10.01-10.01-10.01h0Z"/>
      <path class="st1" d="M100,34.34c36.22,0,65.66,29.47,65.66,65.66s-29.47,65.66-65.66,65.66-65.66-29.47-65.66-65.66S63.8,34.34,100,34.34M109,148.62h.16c23.35-4.39,40.3-24.84,40.3-48.6s-16.96-44.21-40.3-48.6h-.16c-.22,0-.41.07-.58.22-.2.16-.32.43-.32.68v95.44c0,.27.13.52.32.68.16.14.36.22.58.22M91,148.62c.22,0,.41-.07.58-.22.2-.16.32-.43.32-.68V52.28c0-.27-.13-.52-.32-.68-.16-.14-.36-.22-.58-.22h-.16c-23.35,4.39-40.3,24.84-40.3,48.6s16.96,44.21,40.3,48.6h.16M100,33.44c-36.7,0-66.56,29.86-66.56,66.56s29.86,66.56,66.56,66.56,66.56-29.86,66.56-66.56-29.86-66.56-66.56-66.56h0ZM109,147.72V52.28c22.5,4.23,39.56,24.01,39.56,47.72s-17.08,43.49-39.56,47.72h0ZM91,147.72c-22.5-4.23-39.56-24.01-39.56-47.72s17.08-43.49,39.56-47.72v95.44h0Z"/>
    </g>
  </g>
</svg>