<?xml version="1.0" encoding="UTF-8"?>
<svg id="Layer_1" xmlns="http://www.w3.org/2000/svg" version="1.1" viewBox="0 0 200 200">
  <!-- Generator: Adobe Illustrator 29.4.0, SVG Export Plug-In . SVG Version: 2.1.0 Build 152)  -->
  <defs>
    <style>
      .st1 {
        stroke: #666;
        stroke-width: 4;
      }
    </style>
  </defs>
  <g>
    <path class="st1" d="M159.54,15.66l7.42,7.42c17.9,17.9,27.75,41.68,27.75,66.98,0,52.23-42.5,94.74-94.74,94.74S5.24,142.3,5.24,90.07c0-24.86,9.55-48.34,26.91-66.12l7.33-7.52,15.03,14.66-7.33,7.52c-13.49,13.84-20.94,32.12-20.94,51.46,0,40.66,33.07,73.73,73.73,73.73s73.73-33.07,73.73-73.73c0-19.7-7.68-38.21-21.59-52.14l-7.42-7.42,14.84-14.84M159.54,14.01l-16.5,16.5,8.26,8.26c13.7,13.7,21.26,31.93,21.26,51.32,0,40-32.56,72.56-72.56,72.56S27.44,130.1,27.44,90.09c0-19.05,7.33-37.02,20.61-50.65l8.15-8.36-16.71-16.29-8.15,8.36C13.78,41.17,4.1,64.93,4.1,90.09c0,52.89,43.02,95.9,95.9,95.9s95.9-43.02,95.9-95.9c0-25.63-9.97-49.69-28.1-67.83l-8.26-8.26h0Z"/>
    <path class="st1" d="M99.98,27.94c34.26,0,62.13,27.87,62.13,62.13,0,16.59-6.47,32.21-18.2,43.95l-7.42,7.42-14.84-14.87,7.42-7.42c7.77-7.77,12.04-18.09,12.04-29.08,0-22.69-18.46-41.12-41.12-41.12s-41.12,18.46-41.12,41.12c0,11.13,4.39,21.57,12.32,29.36l7.49,7.35-14.7,14.98-7.49-7.35c-12.02-11.79-18.63-27.54-18.63-44.37,0-34.26,27.87-62.13,62.13-62.13M99.98,26.77c-34.92,0-63.3,28.4-63.3,63.3,0,17.13,6.75,33.19,18.98,45.19l8.33,8.17,16.34-16.66-8.33-8.17c-7.73-7.59-11.97-17.71-11.97-28.54,0-22.03,17.92-39.96,39.96-39.96s39.96,17.92,39.96,39.96c0,10.67-4.15,20.7-11.72,28.26l-8.26,8.26,16.5,16.5,8.26-8.26c11.95-11.95,18.53-27.84,18.53-44.77,0-34.92-28.4-63.3-63.3-63.3h0l.02.02h0Z"/>
    <path class="st1" d="M99.98,58.3c17.5,0,31.77,14.26,31.77,31.77s-14.26,31.77-31.77,31.77-31.77-14.26-31.77-31.77,14.26-31.77,31.77-31.77M99.98,100.83c5.93,0,10.76-4.83,10.76-10.76s-4.83-10.76-10.76-10.76-10.76,4.83-10.76,10.76,4.83,10.76,10.76,10.76M99.98,57.14c-18.16,0-32.93,14.77-32.93,32.93s14.77,32.93,32.93,32.93,32.93-14.77,32.93-32.93-14.77-32.93-32.93-32.93h0ZM99.98,99.66c-5.3,0-9.59-4.29-9.59-9.59s4.29-9.59,9.59-9.59,9.59,4.29,9.59,9.59-4.29,9.59-9.59,9.59h0Z"/>
  </g>
</svg>