<?xml version="1.0" encoding="UTF-8"?>
<svg id="Layer_2" xmlns="http://www.w3.org/2000/svg" viewBox="0 0 120 120">
  <defs>
    <style>
      .cls-1 {
        fill: #7e7c7c;
      }
    </style>
  </defs>
  <path class="cls-1" d="M106.68,56.24c2.08,0,3.76,1.69,3.76,3.76s-1.69,3.76-3.76,3.76-3.76-1.69-3.76-3.76,1.69-3.76,3.76-3.76M106.68,54.44c-3.07,0-5.56,2.49-5.56,5.56s2.49,5.56,5.56,5.56,5.56-2.49,5.56-5.56-2.49-5.56-5.56-5.56h0Z"/>
  <path class="cls-1" d="M13.32,56.24c2.08,0,3.76,1.69,3.76,3.76s-1.69,3.76-3.76,3.76-3.76-1.69-3.76-3.76,1.69-3.76,3.76-3.76M13.32,54.44c-3.07,0-5.56,2.49-5.56,5.56s2.49,5.56,5.56,5.56,5.56-2.49,5.56-5.56-2.49-5.56-5.56-5.56h0Z"/>
  <path class="cls-1" d="M60,25.35c19.11,0,34.65,15.54,34.65,34.65s-15.54,34.65-34.65,34.65-34.65-15.54-34.65-34.65,15.54-34.65,34.65-34.65M63.13,88.3l2.13-.4c13.4-2.52,23.13-14.26,23.13-27.9s-9.73-25.37-23.13-27.9l-2.13-.4v56.6M56.87,88.3V31.7l-2.13.4c-13.4,2.52-23.13,14.25-23.13,27.9s9.73,25.37,23.13,27.9l2.13.4M60,23.55c-20.1,0-36.45,16.35-36.45,36.45s16.35,36.45,36.45,36.45,36.45-16.35,36.45-36.45-16.35-36.45-36.45-36.45h0ZM64.93,86.13v-52.25c12.32,2.32,21.66,13.15,21.66,26.13s-9.35,23.81-21.66,26.13h0ZM55.07,86.13c-12.32-2.32-21.66-13.15-21.66-26.13s9.35-23.81,21.66-26.13v52.25h0Z"/>
</svg>