<?xml version="1.0" encoding="UTF-8"?>
<svg id="Layer_1" xmlns="http://www.w3.org/2000/svg" version="1.1" viewBox="0 0 200 200">
  <!-- Generator: Adobe Illustrator 29.4.0, SVG Export Plug-In . SVG Version: 2.1.0 Build 152)  -->
  <defs>
    <style>
      .st0 {
        fill: #d7d7d7;
      }

      .st1 {
        stroke: #7e7c7c;
        stroke-width: 2;
      }

      .st2 {
        display: none;
      }
    </style>
  </defs>
  <g id="Layer_11" class="st2">
    <g>
      <path class="st0" d="M125.52,63.87l3.18,3.18c7.67,7.67,11.89,17.86,11.89,28.7,0,22.38-18.21,40.59-40.59,40.59s-40.59-18.21-40.59-40.59c0-10.65,4.09-20.71,11.53-28.33l3.14-3.22,6.44,6.28-3.14,3.22c-5.78,5.93-8.97,13.76-8.97,22.05,0,17.42,14.17,31.59,31.59,31.59s31.59-14.17,31.59-31.59c0-8.44-3.29-16.37-9.25-22.34l-3.18-3.18,6.36-6.36M125.52,63.16l-7.07,7.07,3.54,3.54c5.87,5.87,9.11,13.68,9.11,21.99,0,17.14-13.95,31.09-31.09,31.09s-31.09-13.95-31.09-31.09c0-8.16,3.14-15.86,8.83-21.7l3.49-3.58-7.16-6.98-3.49,3.58c-7.52,7.72-11.67,17.9-11.67,28.68,0,22.66,18.43,41.09,41.09,41.09s41.09-18.43,41.09-41.09c0-10.98-4.27-21.29-12.04-29.06l-3.54-3.54h0Z"/>
      <path class="st0" d="M100,69.13c14.68,0,26.62,11.94,26.62,26.62,0,7.11-2.77,13.8-7.8,18.83l-3.18,3.18-6.36-6.37,3.18-3.18c3.33-3.33,5.16-7.75,5.16-12.46,0-9.72-7.91-17.62-17.62-17.62s-17.62,7.91-17.62,17.62c0,4.77,1.88,9.24,5.28,12.58l3.21,3.15-6.3,6.42-3.21-3.15c-5.15-5.05-7.98-11.8-7.98-19.01,0-14.68,11.94-26.62,26.62-26.62M100,68.63c-14.96,0-27.12,12.17-27.12,27.12,0,7.34,2.89,14.22,8.13,19.36l3.57,3.5,7-7.14-3.57-3.5c-3.31-3.25-5.13-7.59-5.13-12.23,0-9.44,7.68-17.12,17.12-17.12s17.12,7.68,17.12,17.12c0,4.57-1.78,8.87-5.02,12.11l-3.54,3.54,7.07,7.07,3.54-3.54c5.12-5.12,7.94-11.93,7.94-19.18,0-14.96-12.17-27.12-27.12-27.12h0Z"/>
      <path class="st0" d="M100,82.14c7.5,0,13.61,6.11,13.61,13.61s-6.11,13.61-13.61,13.61-13.61-6.11-13.61-13.61,6.11-13.61,13.61-13.61M100,100.36c2.54,0,4.61-2.07,4.61-4.61s-2.07-4.61-4.61-4.61-4.61,2.07-4.61,4.61,2.07,4.61,4.61,4.61M100,81.64c-7.78,0-14.11,6.33-14.11,14.11s6.33,14.11,14.11,14.11,14.11-6.33,14.11-14.11-6.33-14.11-14.11-14.11h0ZM100,99.86c-2.27,0-4.11-1.84-4.11-4.11s1.84-4.11,4.11-4.11,4.11,1.84,4.11,4.11-1.84,4.11-4.11,4.11h0Z"/>
    </g>
  </g>
  <g>
    <path class="st1" d="M159.54,15.66l7.42,7.42c17.9,17.9,27.75,41.68,27.75,66.98,0,52.23-42.5,94.74-94.74,94.74S5.24,142.3,5.24,90.07c0-24.86,9.55-48.34,26.91-66.12l7.33-7.52,15.03,14.66-7.33,7.52c-13.49,13.84-20.94,32.12-20.94,51.46,0,40.66,33.07,73.73,73.73,73.73s73.73-33.07,73.73-73.73c0-19.7-7.68-38.21-21.59-52.14l-7.42-7.42,14.84-14.84M159.54,14.01l-16.5,16.5,8.26,8.26c13.7,13.7,21.26,31.93,21.26,51.32,0,40-32.56,72.56-72.56,72.56S27.44,130.1,27.44,90.09c0-19.05,7.33-37.02,20.61-50.65l8.15-8.36-16.71-16.29-8.15,8.36C13.78,41.17,4.1,64.93,4.1,90.09c0,52.89,43.02,95.9,95.9,95.9s95.9-43.02,95.9-95.9c0-25.63-9.97-49.69-28.1-67.83l-8.26-8.26h0Z"/>
    <path class="st1" d="M99.98,27.94c34.26,0,62.13,27.87,62.13,62.13,0,16.59-6.47,32.21-18.2,43.95l-7.42,7.42-14.84-14.87,7.42-7.42c7.77-7.77,12.04-18.09,12.04-29.08,0-22.69-18.46-41.12-41.12-41.12s-41.12,18.46-41.12,41.12c0,11.13,4.39,21.57,12.32,29.36l7.49,7.35-14.7,14.98-7.49-7.35c-12.02-11.79-18.63-27.54-18.63-44.37,0-34.26,27.87-62.13,62.13-62.13M99.98,26.77c-34.92,0-63.3,28.4-63.3,63.3,0,17.13,6.75,33.19,18.98,45.19l8.33,8.17,16.34-16.66-8.33-8.17c-7.73-7.59-11.97-17.71-11.97-28.54,0-22.03,17.92-39.96,39.96-39.96s39.96,17.92,39.96,39.96c0,10.67-4.15,20.7-11.72,28.26l-8.26,8.26,16.5,16.5,8.26-8.26c11.95-11.95,18.53-27.84,18.53-44.77,0-34.92-28.4-63.3-63.3-63.3h0l.02.02h0Z"/>
    <path class="st1" d="M99.98,58.3c17.5,0,31.77,14.26,31.77,31.77s-14.26,31.77-31.77,31.77-31.77-14.26-31.77-31.77,14.26-31.77,31.77-31.77M99.98,100.83c5.93,0,10.76-4.83,10.76-10.76s-4.83-10.76-10.76-10.76-10.76,4.83-10.76,10.76,4.83,10.76,10.76,10.76M99.98,57.14c-18.16,0-32.93,14.77-32.93,32.93s14.77,32.93,32.93,32.93,32.93-14.77,32.93-32.93-14.77-32.93-32.93-32.93h0ZM99.98,99.66c-5.3,0-9.59-4.29-9.59-9.59s4.29-9.59,9.59-9.59,9.59,4.29,9.59,9.59-4.29,9.59-9.59,9.59h0Z"/>
  </g>
</svg>